<?xml version="1.0" encoding="utf-8"?>
<!-- Generator: Adobe Illustrator 15.0.0, SVG Export Plug-In  -->
<!DOCTYPE svg PUBLIC "-//W3C//DTD SVG 1.1//EN" "http://www.w3.org/Graphics/SVG/1.1/DTD/svg11.dtd" [
	<!ENTITY ns_flows "http://ns.adobe.com/Flows/1.0/">
]>
<svg version="1.1"
	 xmlns="http://www.w3.org/2000/svg" xmlns:xlink="http://www.w3.org/1999/xlink" xmlns:a="http://ns.adobe.com/AdobeSVGViewerExtensions/3.0/"
	 x="0px" y="0px" width="44px" height="31px" viewBox="0 0 44 31" overflow="visible" enable-background="new 0 0 44 31"
	 xml:space="preserve">
<defs>
</defs>
<path fill="#FFFFFF" d="M43,27c0,1.65-1.35,3-3,3H4c-1.65,0-3-1.35-3-3V4c0-1.65,1.35-3,3-3h36c1.65,0,3,1.35,3,3V27z"/>
<path fill="none" stroke="#FFFFFF" stroke-width="2" stroke-miterlimit="10" d="M43,27c0,1.65-1.35,3-3,3H4c-1.65,0-3-1.35-3-3V4
	c0-1.65,1.35-3,3-3h36c1.65,0,3,1.35,3,3V27z"/>
<polygon fill="#232A33" points="24.023,9.72 14.626,19.117 13.5,24 18.384,22.875 27.781,13.479 "/>
<path fill="#232A33" d="M24.963,8.779l1.057-1.057c1.038-1.038,2.603-0.921,3.642,0.117l0,0c1.038,1.038,1.154,2.604,0.116,3.642
	l-1.057,1.058L24.963,8.779z"/>
</svg>
