<?xml version="1.0" encoding="utf-8"?>
<!-- Generator: Adobe Illustrator 15.0.0, SVG Export Plug-In  -->
<!DOCTYPE svg PUBLIC "-//W3C//DTD SVG 1.1//EN" "http://www.w3.org/Graphics/SVG/1.1/DTD/svg11.dtd" [
	<!ENTITY ns_flows "http://ns.adobe.com/Flows/1.0/">
]>
<svg version="1.1"
	 xmlns="http://www.w3.org/2000/svg" xmlns:xlink="http://www.w3.org/1999/xlink" xmlns:a="http://ns.adobe.com/AdobeSVGViewerExtensions/3.0/"
	 x="0px" y="0px" width="44px" height="19px" viewBox="0 0 44 19" overflow="visible" enable-background="new 0 0 44 19"
	 xml:space="preserve">
<defs>
</defs>
<path fill="#89BA17" d="M43.58,19C42.111,8.284,32.903,0,21.79,0S1.469,8.284,0,19h1.029c0.141-0.978,0.369-1.926,0.64-2.856
	l1.513,0.44c0.515-1.771,1.281-3.459,2.279-5.018l-1.332-0.853c1.079-1.687,2.38-3.218,3.88-4.531l1.054,1.209
	c1.396-1.217,2.953-2.226,4.628-2.998l-0.67-1.452c1.786-0.827,3.706-1.403,5.721-1.698l0.231,1.585
	c1.821-0.265,3.711-0.269,5.513-0.017l0.223-1.587c2.017,0.283,3.939,0.848,5.73,1.664l-0.66,1.456
	c1.682,0.762,3.245,1.76,4.646,2.968l1.044-1.212c1.509,1.304,2.824,2.82,3.913,4.5l-1.329,0.863
	c1.007,1.551,1.784,3.234,2.312,5.003l1.511-0.449c0.289,0.97,0.528,1.96,0.676,2.982H43.58z"/>
<path fill="#89BA17" d="M29.599,8.405l-5.79,6.49c-1.878-0.944-4.221-0.469-5.564,1.25c-0.662,0.848-0.952,1.856-0.933,2.854h4.175
	h1.436h3.352c0.019-1.062-0.337-2.112-1.037-2.956l4.735-7.354C30.865,7.302,30.697,7.174,29.599,8.405z"/>
</svg>
