<?xml version="1.0" encoding="utf-8"?>
<!-- Generator: Adobe Illustrator 15.0.0, SVG Export Plug-In  -->
<!DOCTYPE svg PUBLIC "-//W3C//DTD SVG 1.1//EN" "http://www.w3.org/Graphics/SVG/1.1/DTD/svg11.dtd" [
	<!ENTITY ns_flows "http://ns.adobe.com/Flows/1.0/">
]>
<svg version="1.1"
	 xmlns="http://www.w3.org/2000/svg" xmlns:xlink="http://www.w3.org/1999/xlink" xmlns:a="http://ns.adobe.com/AdobeSVGViewerExtensions/3.0/"
	 x="0px" y="0px" width="44px" height="19px" viewBox="0 0 44 19" overflow="visible" enable-background="new 0 0 44 19"
	 xml:space="preserve">
<defs>
</defs>
<path fill="#E32119" d="M43.58,19C42.112,8.284,32.903,0,21.79,0S1.468,8.284,0,19h1.03c0.141-0.978,0.369-1.926,0.64-2.856
	l1.513,0.44c0.515-1.771,1.281-3.46,2.279-5.018l-1.333-0.853c1.079-1.688,2.379-3.219,3.879-4.531l1.054,1.209
	c1.395-1.217,2.952-2.226,4.626-2.998l-0.67-1.452c1.786-0.827,3.707-1.403,5.721-1.698l0.231,1.585
	c1.822-0.266,3.713-0.269,5.514-0.017l0.222-1.587c2.017,0.283,3.94,0.848,5.731,1.664l-0.659,1.456
	c1.68,0.762,3.243,1.76,4.645,2.968l1.044-1.212c1.509,1.304,2.824,2.82,3.913,4.5l-1.33,0.863c1.008,1.552,1.786,3.235,2.312,5.003
	l1.511-0.449c0.289,0.97,0.529,1.96,0.676,2.982H43.58z"/>
<path fill="#E32119" d="M23.329,14.687c-2.03-0.738-4.244,0.077-5.347,1.837l-8.447-2.229c-1.596-0.42-1.665-0.221-0.155,0.443
	l7.97,3.505c-0.036,0.253-0.054,0.506-0.049,0.757h1.788h3.008h4.173C26.305,17.131,25.184,15.361,23.329,14.687z"/>
</svg>
