<?xml version="1.0" encoding="utf-8"?>
<!-- Generator: Adobe Illustrator 15.0.0, SVG Export Plug-In  -->
<!DOCTYPE svg PUBLIC "-//W3C//DTD SVG 1.1//EN" "http://www.w3.org/Graphics/SVG/1.1/DTD/svg11.dtd" [
	<!ENTITY ns_flows "http://ns.adobe.com/Flows/1.0/">
]>
<svg version="1.1"
	 xmlns="http://www.w3.org/2000/svg" xmlns:xlink="http://www.w3.org/1999/xlink" xmlns:a="http://ns.adobe.com/AdobeSVGViewerExtensions/3.0/"
	 x="0px" y="0px" width="22px" height="18px" viewBox="0 0 22 18" overflow="visible" enable-background="new 0 0 22 18"
	 xml:space="preserve">
<defs>
</defs>
<path fill="#959A9F" d="M20.017,0c0.531,0,1,0.195,1.406,0.586c0.406,0.391,0.609,0.867,0.609,1.43v14.016
	c0,0.532-0.203,0.992-0.609,1.383C21.017,17.805,20.548,18,20.017,18h-18c-0.531,0-1-0.195-1.406-0.586
	C0.203,17.023,0,16.563,0,16.031V12h2.017v4.031h18V1.969h-18V6H0V2.016c0-0.531,0.203-1,0.61-1.406C1.017,0.204,1.485,0,2.017,0
	H20.017z M10.032,12.984v-3H0V8.016h10.032v-3L14.017,9L10.032,12.984z"/>
</svg>
