<?xml version="1.0" encoding="utf-8"?>
<!-- Generator: Adobe Illustrator 15.0.0, SVG Export Plug-In  -->
<!DOCTYPE svg PUBLIC "-//W3C//DTD SVG 1.1//EN" "http://www.w3.org/Graphics/SVG/1.1/DTD/svg11.dtd" [
	<!ENTITY ns_flows "http://ns.adobe.com/Flows/1.0/">
]>
<svg version="1.1"
	 xmlns="http://www.w3.org/2000/svg" xmlns:xlink="http://www.w3.org/1999/xlink" xmlns:a="http://ns.adobe.com/AdobeSVGViewerExtensions/3.0/"
	 x="0px" y="0px" width="44px" height="19px" viewBox="0 0 44 19" overflow="visible" enable-background="new 0 0 44 19"
	 xml:space="preserve">
<defs>
</defs>
<path fill="#FABB00" d="M43.58,19C42.111,8.284,32.903,0,21.79,0S1.468,8.284,0,19h1.03c0.141-0.978,0.369-1.926,0.639-2.855
	l1.513,0.44c0.515-1.771,1.281-3.459,2.279-5.018l-1.332-0.853c1.078-1.688,2.379-3.219,3.88-4.531l1.054,1.209
	c1.395-1.217,2.951-2.226,4.627-2.998l-0.67-1.453c1.786-0.827,3.706-1.402,5.721-1.698l0.231,1.585
	c1.82-0.265,3.711-0.269,5.514-0.017l0.223-1.587c2.016,0.283,3.938,0.848,5.729,1.663l-0.66,1.456
	c1.682,0.762,3.245,1.76,4.646,2.968L35.467,6.1c1.509,1.304,2.825,2.82,3.915,4.5l-1.33,0.863c1.009,1.554,1.786,3.236,2.311,5.003
	l1.512-0.449c0.289,0.97,0.529,1.961,0.677,2.983H43.58z"/>
<path fill="#FABB00" d="M22.736,14.52l-0.796-8.7c-0.15-1.643-0.361-1.641-0.469,0.006l-0.567,8.68
	c-2.061,0.411-3.614,2.229-3.614,4.41c0,0.029,0.008,0.056,0.009,0.085h4.089h0.981h3.912c0.001-0.029,0.009-0.056,0.009-0.085
	C26.29,16.755,24.767,14.954,22.736,14.52z"/>
</svg>
